<?xml version="1.0" encoding="utf-8"?><svg xmlns="http://www.w3.org/2000/svg" xmlns:xlink="http://www.w3.org/1999/xlink" width="1366" height="663" preserveAspectRatio="xMidYMid" viewBox="0 0 1366 663" style="z-index:1;margin-right:-2px;display:block;background-repeat-y:initial;background-repeat-x:initial;background-color:rgb(255, 255, 255);animation-play-state:paused" ><g transform="translate(683,331.5) scale(1,1) translate(-683,-331.5)" style="transform:matrix(1, 0, 0, 1, 0, 0);animation-play-state:paused" ><linearGradient id="lg-0.17630980847614763" x1="0" x2="1" y1="0" y2="0" style="animation-play-state:paused" ><stop stop-color="#ff00ff" offset="0" style="animation-play-state:paused" ></stop>

  
<stop stop-color="#00ffff" offset="1" style="animation-play-state:paused" ></stop></linearGradient>
<path d="M 0 0 L 0 544.401 Q 136.6 616.715 273.2 592.081 T 546.4 522.535 T 819.6 362.667 T 1092.8 385.515 T 1366 300.608 L 1366 0 Z" fill="url(#lg-0.17630980847614763)" opacity="0.4" style="opacity:0.4;animation-play-state:paused" ></path>
<path d="M 0 0 L 0 620.976 Q 136.6 604.907 273.2 570.488 T 546.4 507.553 T 819.6 397.264 T 1092.8 362.22 T 1366 293.21 L 1366 0 Z" fill="url(#lg-0.17630980847614763)" opacity="0.4" style="opacity:0.4;animation-play-state:paused" ></path>
<path d="M 0 0 L 0 650.001 Q 136.6 576.479 273.2 542.989 T 546.4 514.293 T 819.6 438.651 T 1092.8 322.186 T 1366 297.137 L 1366 0 Z" fill="url(#lg-0.17630980847614763)" opacity="0.4" style="opacity:0.4;animation-play-state:paused" ></path>
<path d="M 0 0 L 0 601.015 Q 136.6 526.679 273.2 503.124 T 546.4 508.874 T 819.6 389.615 T 1092.8 355.909 T 1366 279.856 L 1366 0 Z" fill="url(#lg-0.17630980847614763)" opacity="0.4" style="opacity:0.4;animation-play-state:paused" ></path>
<path d="M 0 0 L 0 575.113 Q 136.6 607.145 273.2 580.011 T 546.4 479.387 T 819.6 379.566 T 1092.8 338.177 T 1366 305.532 L 1366 0 Z" fill="url(#lg-0.17630980847614763)" opacity="0.4" style="opacity:0.4;animation-play-state:paused" ></path></g></svg>